<svg xmlns="http://www.w3.org/2000/svg" viewBox="0 0 566.59 86.82"><defs><linearGradient id="linear-gradient" x1="41.26" y1="65.2" x2="66.49" y2="65.2" gradientUnits="userSpaceOnUse"><stop offset="0" stop-color="#fff" stop-opacity="0"/><stop offset="1"/></linearGradient><style>.cls-2{fill:#00338d}</style></defs><g style="isolation:isolate"><g id="Layer_1" data-name="Layer 1"><path class="cls-2" d="M43.25.33A43.25 43.25 0 1066.49 80v6.79h20V43.58A43.25 43.25 0 0043.25.33zm0 66.49a23.24 23.24 0 1123.24-23.24 23.24 23.24 0 01-23.24 23.24z"/><path d="M66.49 43.58a23.24 23.24 0 01-23.24 23.24c-.67 0-1.33 0-2-.09v20c.66 0 1.32.05 2 .05A43 43 0 0066.49 80z" style="mix-blend-mode:multiply" fill="url(#linear-gradient)"/><path class="cls-2" d="M160.54 60.42a13 13 0 01-6.08 4.8 19.26 19.26 0 01-7.17 1.51 21.61 21.61 0 01-21.75-22.21 21.56 21.56 0 0121.74-22.22 19.57 19.57 0 016.9 1.32 13.16 13.16 0 016.35 4.89v-5.3h11.15V65.9h-11.14v-5.48zM148.84 56a12.09 12.09 0 008.11-3 11.14 11.14 0 003.59-8.5 11.1 11.1 0 00-3.66-8.5 12.28 12.28 0 00-16.24.17 11.48 11.48 0 000 16.69 12.1 12.1 0 008.2 3.14zm72.06-12.86V65.9h-11.15V42.41a10.25 10.25 0 00-2.32-6.84 7.26 7.26 0 00-5.54-2.39 8.86 8.86 0 00-6.19 2.24c-1.67 1.58-2.77 4.07-2.77 7.72V65.9h-11.15V23.22h11.15v6.31a11.58 11.58 0 015.51-5.53 15.52 15.52 0 016.74-1.61 19 19 0 018.45 2.16 12.29 12.29 0 015.16 5.79 15.54 15.54 0 017-6.66 15.38 15.38 0 016.48-1.38c5.16 0 9.28 1.67 12.1 4.9s4.35 8 4.35 14.29V65.9h-11.09V42.68a10.34 10.34 0 00-2.31-7 7.49 7.49 0 00-5.73-2.46 8.2 8.2 0 00-6.23 2.55 10.67 10.67 0 00-2.46 7.37zm78.51 5.12h-32.54a9.8 9.8 0 003.8 6.7 13 13 0 008 2.45 14.35 14.35 0 006.2-1.37 10 10 0 004.49-4.11c1.33.73 2.77 1.51 4.22 2.28l4.28 2.28a18 18 0 01-8.46 7.91 27 27 0 01-11.47 2.42 21.64 21.64 0 01-22.12-22.39 21.81 21.81 0 016.5-16.1 22.34 22.34 0 0115.62-6 21.59 21.59 0 0115.39 6c3.9 3.85 6.27 9.38 6.27 16.1 0 .55 0 1.26-.06 2s-.08 1.33-.12 1.83zm-10.69-7.59a10.23 10.23 0 00-3.6-6.72 11.11 11.11 0 00-7.1-2.33 12.07 12.07 0 00-7.51 2.38 10 10 0 00-3.74 6.68h21.94zm30.85 25.23h-11.15V23.22h11.15v10.05a16.38 16.38 0 015-8.4 10.92 10.92 0 017-2.57 17.42 17.42 0 014 .43 12.74 12.74 0 013 1.12l-1 5-1 5a13.65 13.65 0 00-3.83-1 20.09 20.09 0 00-2.66-.15 8.76 8.76 0 00-8.19 4.8c-1.73 3.11-2.5 7.63-2.5 13.3v15.1zM351.08 0a7.24 7.24 0 015 1.93 6.46 6.46 0 012.08 4.74 6.58 6.58 0 01-2.16 4.82 7.2 7.2 0 01-5 1.94 7.49 7.49 0 01-5-1.94 6.51 6.51 0 01-2.14-4.82A6.39 6.39 0 01346 1.93 7.54 7.54 0 01351.08 0zm5.48 65.9H345.5V23.22h11.06V65.9zm9.29-30.9a11.64 11.64 0 014.67-8.92 17.68 17.68 0 0111-3.78 19.93 19.93 0 0111.2 3.05 12.52 12.52 0 015.44 10.39H387.6a4.14 4.14 0 00-2-3.39 7.19 7.19 0 00-3.74-1 6.93 6.93 0 00-3.73.9 3.67 3.67 0 00-1.67 3.3 2.75 2.75 0 001.31 2.19 9.49 9.49 0 003.16 1.37l3.57.87 3.57.87c4.94 1.28 7.72 3.63 9.28 6.09a12.58 12.58 0 011.87 6.71 11.54 11.54 0 01-5.4 9.84 21.8 21.8 0 01-12.05 3.32 19.61 19.61 0 01-11.68-3.71 13.34 13.34 0 01-5.51-10.64H375a5.5 5.5 0 002.49 3.9 8.72 8.72 0 005.37 1.5 7 7 0 004-1.26 3.76 3.76 0 001.62-3 2.93 2.93 0 00-1.18-2.6 8.89 8.89 0 00-3.53-1.46l-2.92-.73-2.92-.73c-5.53-1.51-8.55-3.52-10.18-5.78s-1.9-4.78-1.9-7.3zm39.29-35h11.15v65.9h-11.15V0zm60 48.26H432.6a9.8 9.8 0 003.8 6.7 13 13 0 008 2.45 14.35 14.35 0 006.2-1.41 10 10 0 004.49-4.11c1.33.73 2.77 1.51 4.22 2.28l4.28 2.28a18 18 0 01-8.46 7.91 27 27 0 01-11.47 2.42 21.64 21.64 0 01-22.12-22.39 21.81 21.81 0 016.5-16.1 22.34 22.34 0 0115.62-6 21.59 21.59 0 0115.39 6c3.9 3.85 6.27 9.38 6.27 16.1 0 .55 0 1.26-.06 2s-.07 1.37-.12 1.87zm-10.69-7.59a10.23 10.23 0 00-3.6-6.72 11.11 11.11 0 00-7.1-2.33 12.07 12.07 0 00-7.5 2.38 10 10 0 00-3.74 6.68h21.94zm59.26 7.59h-32.54A9.8 9.8 0 00485 55a13 13 0 008 2.45 14.35 14.35 0 006.2-1.37 10 10 0 004.49-4.11c1.33.73 2.77 1.51 4.22 2.28l4.28 2.28a18 18 0 01-8.46 7.91 27 27 0 01-11.47 2.42 21.64 21.64 0 01-22.12-22.39 21.81 21.81 0 016.5-16.1 22.34 22.34 0 0115.62-6 21.59 21.59 0 0115.39 6c3.9 3.85 6.27 9.38 6.27 16.1 0 .55 0 1.26-.06 2s-.1 1.29-.15 1.79zM503 40.67a10.23 10.23 0 00-3.6-6.72 11.11 11.11 0 00-7.1-2.33 12.07 12.07 0 00-7.48 2.38 10 10 0 00-3.74 6.68H503zM532.41 29a12 12 0 015.44-4.91 18.3 18.3 0 017.91-1.76 20.4 20.4 0 0114.6 6.07 22.58 22.58 0 016.24 16.14 22.7 22.7 0 01-6.24 16.26 20.38 20.38 0 01-14.6 6 18.76 18.76 0 01-7.91-1.68 11.58 11.58 0 01-5.44-4.9v26.43h-11.15V23.22h11.15V29zm11.52 27.24a11.21 11.21 0 007.92-3.15 11.49 11.49 0 003.32-8.36 11.78 11.78 0 00-3.32-8.49 11.11 11.11 0 00-7.93-3.24 11.27 11.27 0 00-8 3.18 11.7 11.7 0 00-3.37 8.52 11.3 11.3 0 003.47 8.53 11.52 11.52 0 007.9 2.98z"/></g></g></svg>